<?xml version="1.0" encoding="utf-8"?>
<!-- Generator: Adobe Illustrator 16.0.0, SVG Export Plug-In . SVG Version: 6.00 Build 0)  -->
<!DOCTYPE svg PUBLIC "-//W3C//DTD SVG 1.1//EN" "http://www.w3.org/Graphics/SVG/1.1/DTD/svg11.dtd">
<svg version="1.1" id="Capa_1" xmlns="http://www.w3.org/2000/svg" xmlns:xlink="http://www.w3.org/1999/xlink" x="0px" y="0px"
	 width="93.536px" height="100.337px" viewBox="0 0 93.536 100.337" enable-background="new 0 0 93.536 100.337"
	 xml:space="preserve">
<g>
	<g>
		<g>
			<g>
				<g>
					<path fill="#FFFFFF" d="M5.104,98.097c-2.473-1.992-3.469-5.055-2.507-7.512c-2.87-2.943-3.46-7.162-1.274-9.883l0.49-0.611
						l21.57,17.325l-0.495,0.616c-2.178,2.712-6.415,3.061-9.909,0.889C10.79,100.393,7.581,100.091,5.104,98.097z"/>
				</g>
			</g>
		</g>
		<g>
			<polygon fill="#FFFFFF" points="27.491,97.2 1.179,76.06 2.634,71.312 31.816,94.757 			"/>
		</g>
		<path fill="#FFFFFF" d="M63.506,19.126c-0.486,0.608-0.798,1.357-0.882,2.158c-0.161,1.499,0.464,2.976,1.68,3.949
			c1.275,1.021,2.97,1.292,4.444,0.707c0.662-0.264,1.243-0.695,1.692-1.249c1.47-1.836,1.113-4.574-0.796-6.111
			C67.732,17.047,64.983,17.284,63.506,19.126z"/>
		<path fill="#FFFFFF" d="M15.239,68.746c-0.396-0.306-1.137-0.987-1.137-0.987c-4.066-3.574-4.689-9.715-1.293-14.007
			c3.374-4.263,9.438-5.077,13.834-2.009c3.661-3.21,8.877-3.902,13.258-1.858l5.244-8.985c-0.352-0.99-0.578-1.998-0.539-2.98
			c-2.037-0.83-3.185,1.153-5.074,1.326c-0.197,0.024-0.466,0.082-0.608-0.072c-0.139-0.148-0.13-0.48-0.103-0.678
			C39,37.37,40.572,27.457,43.249,25.172c0.965-0.829,2.285-0.685,3.455-0.551c0.225,0.024,0.449,0.047,0.658,0.063
			c0.738-1.597,3.395-5.246,4.481-6.603c4.925-6.131,14.717-11.278,23.495-10.657c-1.15-0.361-2.306-0.684-3.461-0.929
			C52.915-5.01,27.916-1.013,13.649,16.748c-6.721,8.366-9.941,18.398-9.883,28.351l-0.004-0.003l0.002,0.116
			c0,0.152,0.002,0.304,0.005,0.46L4.038,64.87C5.944,66.911,9.765,69.867,15.239,68.746z"/>
		<path fill="#FFFFFF" d="M80.801,13.575c-0.43-0.979-0.918-1.944-1.443-2.903c2.491,8.43-0.432,19.087-5.352,25.216
			c-1.121,1.394-4.159,4.803-5.618,5.894c0.062,0.205,0.131,0.42,0.204,0.637c0.382,1.114,0.806,2.376,0.213,3.487
			c-1.663,3.103-10.915,6.801-11.999,7.066c-0.198,0.05-0.459,0.177-0.64,0.077c-0.022-0.022-0.049-0.04-0.073-0.06
			c-0.132-0.11-0.104-0.229-0.128-0.393c-0.243-1.869,1.497-3.653,0.279-5.462c-1.046,0.289-2.19,0.301-3.348,0.124l-7.646,7.389
			c2.227,3.718,2.356,8.438,0.186,12.315c3.416,3.641,3.787,9.299,0.592,13.329c-3.507,4.433-9.941,5.178-14.371,1.672
			c-0.249-0.201-0.397-0.321-0.681-0.669c-0.362,1.854,0.2,7.374,8.328,10.622l17.117-2.832l-0.036-0.037
			c10.37-1.807,20.156-7.209,27.268-16.058C98.021,55.103,96.426,29.594,80.801,13.575z"/>
	</g>
</g>
</svg>
