<?xml version="1.0" encoding="utf-8"?>
<!-- Generator: Adobe Illustrator 16.0.0, SVG Export Plug-In . SVG Version: 6.00 Build 0)  -->
<!DOCTYPE svg PUBLIC "-//W3C//DTD SVG 1.1//EN" "http://www.w3.org/Graphics/SVG/1.1/DTD/svg11.dtd">
<svg version="1.1" id="Capa_1" xmlns="http://www.w3.org/2000/svg" xmlns:xlink="http://www.w3.org/1999/xlink" x="0px" y="0px"
	 width="1299.13px" height="810.17px" viewBox="0 0 1299.13 810.17" enable-background="new 0 0 1299.13 810.17"
	 xml:space="preserve">
<g>
	<g>
		<g>
			<path fill="#322958" d="M458.271,0c8.475,0,19.574,2.55,33.224,7.725v8.399v16.649h-7.274c-1.726,0-2.775-0.825-3.15-2.55
				c-0.149-0.601-0.375-2.851-0.675-6.825s-0.45-6.225-0.525-6.75c-22.424-7.124-39.298-4.649-50.622,7.351
				c-7.275,7.725-10.95,18.074-10.95,31.048c0,12.975,3.6,23.399,10.8,31.199c6.825,7.425,15.675,11.175,26.549,11.175
				c6.225,0,10.949-0.601,14.175-1.8c4.875-1.801,9.3-4.425,13.274-7.95c0.825-0.75,1.649-1.125,2.475-1.125s1.575,0.3,2.25,0.975
				l5.7,6.226c-9.3,10.799-22.199,16.199-38.699,16.199c-15.374,0-27.749-5.1-37.123-15.3
				c-9.375-10.124-14.024-23.324-14.024-39.599c0-16.273,5.024-29.474,14.999-39.673s23.249-15.3,39.749-15.3L458.271,0z"/>
			<path fill="#322958" d="M583.445,108.745h-3.449h-1.351h-59.697h-10.8v-6.45c0-1.35,0.976-2.55,2.325-2.774
				c1.35-0.3,8.55-1.725,8.55-1.725V12.224c0,0-7.2-1.425-8.55-1.725c-1.35-0.225-2.325-1.425-2.325-2.774v-6.45h10.8h14.55h10.799
				v6.45c0,1.35-0.975,2.55-2.324,2.774c-1.275,0.225-8.325,1.65-8.55,1.725v84.297h38.773c0.375-4.274,0.675-8.024,0.825-8.625
				c0.3-1.499,1.649-2.55,3.149-2.55h7.274V108.745z"/>
			<path fill="#322958" d="M626.497,12.224v85.572c4.875,0.975,7.874,1.574,9.074,1.8c1.2,0.225,1.8,1.125,1.8,2.699v6.45h-36.224
				v-6.45c0-1.574,0.75-2.475,2.25-2.774l8.55-1.725V12.224c-4.8-0.975-7.8-1.574-8.999-1.8c-1.2-0.225-1.801-1.125-1.801-2.699
				v-6.45h36.224v6.45c0,1.574-0.75,2.475-2.324,2.774L626.497,12.224z"/>
			<path fill="#322958" d="M677.796,22.349c0.3,2.625,0.45,5.024,0.45,7.274v68.022c5.399,0.9,8.774,1.5,10.125,1.8
				c1.35,0.3,2.024,1.2,2.024,2.775v6.449h-35.773v-6.449c0-1.575,0.75-2.476,2.25-2.775l8.55-1.725V12.149
				c-4.8-0.976-7.65-1.575-8.55-1.801c-1.5-0.3-2.25-1.199-2.25-2.774v-6.45h21.524c1.274,0,2.25,0.15,2.925,0.375
				c0.675,0.226,1.35,0.9,2.024,2.025l37.124,66.147c0.899,1.5,2.024,4.125,3.375,7.8c1.05-2.925,2.175-5.55,3.449-7.875
				l36.374-66.072c0.675-1.125,1.35-1.8,2.024-2.025c0.675-0.225,1.65-0.375,2.925-0.375h21.6v6.45c0,1.575-0.75,2.475-2.325,2.774
				c-5.625,1.125-8.475,1.726-8.55,1.726v85.571c4.875,0.975,7.725,1.575,8.55,1.8c1.575,0.3,2.325,1.2,2.325,2.775v6.449h-35.849
				v-6.449c0-1.575,0.75-2.476,2.175-2.775s4.8-0.899,10.05-1.725V29.698c0-2.175,0.075-4.5,0.3-6.975l-36.823,67.197
				c-1.275,2.25-3,3.375-5.25,3.375h-2.1c-2.25,0-3.976-1.125-5.25-3.375l-37.648-67.422L677.796,22.349z"/>
			<path fill="#322958" d="M912.242,102.82v5.925h-30.823v-5.925c0-1.35,0.675-2.175,2.024-2.55l6.149-1.725l-8.399-21.675h-46.348
				l-8.399,21.675l6.149,1.725c1.35,0.375,2.024,1.2,2.024,2.55v5.925h-30.823v-5.925c0-1.35,0.675-2.175,1.95-2.475l5.999-1.8
				L850.67,1.274h14.774l38.849,97.271l5.999,1.8C911.567,100.646,912.242,101.471,912.242,102.82z M877.144,66.372l-15.899-41.249
				c-1.125-2.699-2.175-6.074-3.225-10.124c-1.2,4.425-2.25,7.8-3.149,10.199l-15.975,41.174H877.144z"/>
			<path fill="#322958" d="M374.835,434.971c-0.225-2.175-0.375-4.649-0.375-7.425v-65.172c-5.85-0.975-9.149-1.575-9.975-1.725
				c-1.499-0.301-2.249-1.2-2.249-2.775v-6.449h12.224h12.75h10.874v6.449c0,1.575-0.75,2.475-2.324,2.775l-8.55,1.725v96.521h-7.35
				c-2.025,0-3.75-0.9-5.175-2.625l-62.173-80.922c0.226,2.55,0.3,4.875,0.3,6.975v65.622c5.925,0.976,9.225,1.575,9.975,1.726
				c1.5,0.3,2.25,1.199,2.25,2.774v6.45h-35.773v-6.45c0-1.575,0.75-2.475,2.25-2.774l8.55-1.726v-85.571
				c-4.8-0.975-7.649-1.575-8.55-1.8c-1.5-0.3-2.25-1.2-2.25-2.775v-6.449h18.3c1.274,0,2.25,0.149,2.85,0.45
				c0.6,0.3,1.35,0.975,2.175,1.949l62.247,80.997V434.971z"/>
			<path fill="#322958" d="M517.332,405.272c0,8.024-1.274,15.374-3.825,22.124c-2.55,6.75-6.149,12.524-10.799,17.399
				c-4.65,4.875-10.2,8.624-16.725,11.324s-13.725,4.05-21.6,4.05c-7.874,0-15.074-1.35-21.599-4.05s-12.074-6.449-16.725-11.324
				c-4.649-4.875-8.249-10.649-10.8-17.399c-2.55-6.75-3.824-14.175-3.824-22.199s1.274-15.449,3.824-22.199
				c2.551-6.75,6.15-12.524,10.8-17.399c4.65-4.875,10.2-8.699,16.725-11.399s13.725-4.05,21.599-4.05
				c7.875,0,15.075,1.35,21.6,4.05s12.149,6.45,16.799,11.324c4.65,4.875,8.25,10.65,10.8,17.399c2.55,6.75,3.825,14.1,3.825,22.124
				L517.332,405.272z M502.333,405.272c0-6.6-0.9-12.524-2.7-17.774s-4.35-9.675-7.649-13.274s-7.275-6.375-12-8.325
				c-4.725-1.949-9.975-2.925-15.749-2.925s-11.024,0.976-15.749,2.925c-4.726,1.95-8.7,4.726-12,8.325s-5.85,8.024-7.649,13.274
				s-2.7,11.175-2.7,17.774s0.9,12.524,2.7,17.774c1.8,5.249,4.35,9.674,7.649,13.274c3.3,3.6,7.35,6.374,12.074,8.324
				c4.726,1.95,9.975,2.925,15.75,2.925c5.774,0,11.024-0.975,15.749-2.925s8.699-4.725,11.999-8.324
				c3.301-3.601,5.851-8.025,7.65-13.274c1.8-5.25,2.699-11.175,2.699-17.774H502.333z"/>
			<path fill="#322958" d="M613.106,351.35v23.773h-7.275c-1.725,0-2.699-0.524-2.925-1.574c-0.225-1.05-0.675-4.35-1.35-9.975
				h-25.274v84.296c0.075,0,0.675,0.15,1.875,0.375c3.825,0.75,6.3,1.2,7.35,1.426c1.05,0.225,1.575,1.125,1.575,2.699v6.45h-36.224
				v-6.45c0-1.574,0.825-2.55,2.475-2.925c1.65-0.375,4.425-0.899,8.25-1.649v-84.297h-25.349c-0.675,5.625-1.125,8.925-1.351,9.975
				c-0.225,1.05-1.199,1.575-2.925,1.575h-7.274v-23.774h80.922h5.175L613.106,351.35z"/>
			<path fill="#322958" d="M653.608,362.224v85.572c4.875,0.975,7.874,1.574,9.074,1.8c1.2,0.225,1.8,1.125,1.8,2.699v6.45h-36.224
				v-6.45c0-1.574,0.75-2.475,2.25-2.774l8.55-1.725v-85.572c-4.8-0.975-7.8-1.574-8.999-1.8c-1.2-0.225-1.801-1.125-1.801-2.699
				v-6.45h36.224v6.45c0,1.574-0.75,2.475-2.324,2.774L653.608,362.224z"/>
			<path fill="#322958" d="M734.531,350c8.475,0,19.574,2.55,33.224,7.725v8.399v16.649h-7.274c-1.726,0-2.775-0.825-3.15-2.55
				c-0.149-0.601-0.375-2.851-0.675-6.825s-0.45-6.225-0.525-6.75c-22.424-7.124-39.298-4.649-50.622,7.351
				c-7.275,7.725-10.95,18.074-10.95,31.048c0,12.975,3.6,23.399,10.8,31.199c6.825,7.425,15.675,11.175,26.549,11.175
				c6.225,0,10.949-0.601,14.175-1.8c4.875-1.801,9.3-4.425,13.274-7.95c0.825-0.75,1.649-1.125,2.475-1.125s1.575,0.3,2.25,0.975
				l5.7,6.226c-9.3,10.799-22.199,16.199-38.699,16.199c-15.374,0-27.749-5.1-37.123-15.3
				c-9.375-10.124-14.024-23.324-14.024-39.599c0-16.273,5.024-29.474,14.999-39.673s23.249-15.3,39.749-15.3L734.531,350z"/>
			<path fill="#322958" d="M809.758,362.224v85.572c4.875,0.975,7.874,1.574,9.074,1.8c1.2,0.225,1.8,1.125,1.8,2.699v6.45h-36.224
				v-6.45c0-1.574,0.75-2.475,2.25-2.774l8.55-1.725v-85.572c-4.8-0.975-7.8-1.574-8.999-1.8c-1.2-0.225-1.801-1.125-1.801-2.699
				v-6.45h36.224v6.45c0,1.574-0.75,2.475-2.324,2.774L809.758,362.224z"/>
			<path fill="#322958" d="M944.903,452.82v5.925H914.08v-5.925c0-1.35,0.675-2.175,2.024-2.55l6.149-1.725l-8.399-21.675h-46.348
				l-8.4,21.675l6.15,1.725c1.35,0.375,2.024,1.2,2.024,2.55v5.925h-30.823v-5.925c0-1.35,0.675-2.175,1.95-2.475l5.999-1.8
				l38.924-97.271h14.774l38.849,97.271l5.999,1.8C944.229,450.646,944.903,451.471,944.903,452.82z M909.805,416.372
				l-15.899-41.249c-1.125-2.699-2.175-6.074-3.225-10.124c-1.2,4.425-2.25,7.8-3.149,10.199l-15.975,41.174H909.805z"/>
			<path fill="#322958" d="M1012.18,401.897c10.875,4.875,16.274,12.975,16.274,24.224c0,9.825-3.149,17.85-9.375,24.074
				c-6.675,6.524-15.524,9.825-26.624,9.825c-4.649,0-9.524-0.45-14.699-1.426c-5.175-0.975-9.225-1.949-12.149-2.925l-4.274-1.5
				v-26.924h7.274c1.725,0,2.775,0.825,3.15,2.55c0.149,0.676,0.375,3.15,0.675,7.425c0.3,4.275,0.45,6.45,0.45,6.525
				c7.424,2.774,13.499,4.124,18.224,4.124s8.399-0.449,11.1-1.425c2.7-0.975,5.024-2.324,6.899-4.05
				c3.825-3.524,5.775-8.249,5.775-14.174c0-5.7-2.7-10.125-8.025-13.2c-2.399-1.425-5.1-2.624-8.174-3.6
				c-9.525-2.925-15.825-5.1-18.899-6.449c-3.075-1.351-5.85-3.15-8.25-5.325c-5.324-4.8-8.024-11.475-8.024-20.024
				c0-8.024,2.85-14.849,8.625-20.474c6.149-6.075,14.174-9.075,23.999-9.075c9.824,0,19.874,2.025,30.148,6.15v24.674h-7.274
				c-1.726,0-2.775-0.825-3.075-2.55c-0.075-0.3-0.45-4.725-1.125-13.35c-6.675-1.875-12.6-2.85-17.699-2.85
				c-6.3,0-11.25,1.649-14.85,4.874c-3.375,3-5.1,6.976-5.1,11.85c0,5.25,2.7,9.45,8.1,12.524c2.399,1.426,5.175,2.625,8.324,3.675
				c9,3,15.3,5.25,18.824,6.825H1012.18z"/>
			<path fill="#322958" d="M280.037,722.349c0.3,2.625,0.45,5.024,0.45,7.274v68.022c5.399,0.9,8.774,1.5,10.125,1.8
				c1.35,0.3,2.024,1.2,2.024,2.775v6.449h-35.773v-6.449c0-1.575,0.75-2.476,2.25-2.775l8.55-1.725v-85.571
				c-4.8-0.976-7.65-1.575-8.55-1.801c-1.5-0.3-2.25-1.199-2.25-2.774v-6.45h21.524c1.274,0,2.25,0.15,2.925,0.375
				c0.675,0.226,1.35,0.9,2.024,2.025l37.124,66.147c0.899,1.5,2.024,4.125,3.375,7.8c1.05-2.925,2.175-5.55,3.449-7.875
				l36.374-66.072c0.675-1.125,1.35-1.8,2.024-2.025c0.675-0.225,1.65-0.375,2.925-0.375h21.6v6.45c0,1.575-0.75,2.475-2.325,2.774
				c-5.625,1.125-8.475,1.726-8.55,1.726v85.571c4.875,0.975,7.725,1.575,8.55,1.8c1.575,0.3,2.325,1.2,2.325,2.775v6.449h-35.849
				v-6.449c0-1.575,0.75-2.476,2.175-2.775s4.8-0.899,10.05-1.725v-68.022c0-2.175,0.075-4.5,0.3-6.975l-36.823,67.197
				c-1.275,2.25-3,3.375-5.25,3.375h-2.1c-2.25,0-3.976-1.125-5.25-3.375l-37.648-67.422L280.037,722.349z"/>
			<path fill="#322958" d="M484.484,701.35v25.949h-7.199c-1.725,0-2.775-0.9-3.15-2.625c-0.074-0.45-0.449-4.275-1.05-11.475
				h-40.198v35.698h39.599v11.399h-39.599v36.674h40.273c0.525-6.675,0.825-10.199,0.9-10.649c0.375-1.726,1.425-2.55,3.149-2.55
				h7.2v25.049h-77.022v-6.45c0-1.574,0.75-2.475,2.25-2.774l8.55-1.726v-85.571c-4.8-0.975-7.649-1.575-8.55-1.8
				c-1.5-0.3-2.25-1.2-2.25-2.774v-6.45L484.484,701.35z"/>
			<path fill="#322958" d="M591.883,799.445c1.351,0.226,2.325,1.425,2.325,2.775v6.449h-2.7h-8.175h-4.725
				c-2.625,0-4.574-1.05-5.85-3.074l-27.898-38.398c-0.825-1.2-1.726-2.025-2.7-2.551c-0.975-0.524-2.475-0.824-4.5-0.824h-9.6
				v33.898c0.075,0,7.2,1.425,8.475,1.649c1.351,0.226,2.325,1.426,2.325,2.775v6.449h-10.8h-14.475h-10.799v-6.449
				c0-1.35,0.975-2.55,2.324-2.775c1.351-0.3,8.55-1.725,8.55-1.725v-85.571c0,0-7.199-1.425-8.55-1.726
				c-1.35-0.225-2.324-1.425-2.324-2.774v-6.45h10.799h28.949c6.824,0,12.675,0.676,17.624,2.025c4.95,1.35,9.075,3.375,12.3,6
				s5.625,5.774,7.199,9.449c1.575,3.675,2.325,7.8,2.325,12.375c0,3.824-0.6,7.35-1.8,10.649s-2.925,6.3-5.175,8.925
				s-5.024,4.874-8.324,6.749c-3.301,1.875-6.976,3.3-11.1,4.275c1.8,1.05,3.374,2.55,4.8,4.574l23.323,31.724
				c0.9,0.15,7.125,1.426,8.325,1.65L591.883,799.445z M541.635,753.247c4.275,0,8.025-0.524,11.25-1.574
				c3.225-1.051,5.925-2.476,8.1-4.351s3.825-4.124,4.95-6.749s1.649-5.476,1.649-8.625c0-6.375-2.1-11.175-6.3-14.399
				c-4.199-3.225-10.499-4.875-18.824-4.875h-14.475v40.573h13.8H541.635z"/>
			<path fill="#322958" d="M660.209,700c8.475,0,19.574,2.55,33.224,7.725v8.399v16.649h-7.274c-1.726,0-2.775-0.825-3.15-2.55
				c-0.149-0.601-0.375-2.851-0.675-6.825s-0.45-6.225-0.525-6.75c-22.424-7.124-39.298-4.649-50.622,7.351
				c-7.275,7.725-10.95,18.074-10.95,31.048c0,12.975,3.6,23.399,10.8,31.199c6.825,7.425,15.675,11.175,26.549,11.175
				c6.225,0,10.949-0.601,14.175-1.8c4.875-1.801,9.3-4.425,13.274-7.95c0.825-0.75,1.649-1.125,2.475-1.125s1.575,0.3,2.25,0.975
				l5.7,6.226c-9.3,10.799-22.199,16.199-38.699,16.199c-15.374,0-27.749-5.1-37.123-15.3
				c-9.375-10.124-14.024-23.324-14.024-39.599c0-16.273,5.024-29.474,14.999-39.673s23.249-15.3,39.749-15.3L660.209,700z"/>
			<path fill="#322958" d="M817.257,802.82v5.925h-30.823v-5.925c0-1.35,0.675-2.175,2.024-2.55l6.149-1.725l-8.399-21.675H739.86
				l-8.4,21.675l6.15,1.725c1.35,0.375,2.024,1.2,2.024,2.55v5.925h-30.823v-5.925c0-1.35,0.675-2.175,1.95-2.475l5.999-1.8
				l38.924-97.271h14.774l38.849,97.271l5.999,1.8C816.582,800.646,817.257,801.471,817.257,802.82z M782.158,766.372
				l-15.899-41.249c-1.125-2.699-2.175-6.074-3.225-10.124c-1.2,4.425-2.25,7.8-3.149,10.199l-15.975,41.174H782.158z"/>
			<path fill="#322958" d="M936.131,755.122c0,8.025-1.274,15.375-3.824,21.975s-6.15,12.225-10.8,16.949
				c-9.75,9.824-22.499,14.774-38.323,14.774H833.61v-6.45c0-1.574,0.75-2.475,2.25-2.774l8.55-1.726v-85.571
				c-4.8-0.975-7.65-1.575-8.55-1.8c-1.5-0.3-2.25-1.2-2.25-2.774v-6.45h49.573c15.824,0,28.573,4.95,38.248,14.774
				c9.75,9.975,14.625,22.949,14.625,38.998L936.131,755.122z M918.507,737.423c-1.8-5.175-4.35-9.6-7.649-13.199
				c-6.75-7.425-15.975-11.1-27.674-11.1h-24.149v83.922h24.149c11.624,0,20.849-3.675,27.674-11.1
				c6.899-7.425,10.35-17.699,10.35-30.824C921.207,748.522,920.307,742.598,918.507,737.423z"/>
			<path fill="#322958" d="M1060.629,755.272c0,8.024-1.274,15.374-3.825,22.124c-2.55,6.75-6.149,12.524-10.799,17.399
				c-4.65,4.875-10.2,8.624-16.725,11.324s-13.725,4.05-21.6,4.05c-7.874,0-15.074-1.35-21.599-4.05s-12.074-6.449-16.725-11.324
				c-4.649-4.875-8.249-10.649-10.8-17.399c-2.55-6.75-3.824-14.175-3.824-22.199s1.274-15.449,3.824-22.199
				c2.551-6.75,6.15-12.524,10.8-17.399c4.65-4.875,10.2-8.699,16.725-11.399s13.725-4.05,21.599-4.05
				c7.875,0,15.075,1.35,21.6,4.05s12.149,6.45,16.799,11.324c4.65,4.875,8.25,10.65,10.8,17.399c2.55,6.75,3.825,14.1,3.825,22.124
				L1060.629,755.272z M1045.63,755.272c0-6.6-0.9-12.524-2.7-17.774s-4.35-9.675-7.649-13.274s-7.275-6.375-12-8.325
				c-4.725-1.949-9.975-2.925-15.749-2.925s-11.024,0.976-15.749,2.925c-4.726,1.95-8.7,4.726-12,8.325s-5.85,8.024-7.649,13.274
				s-2.7,11.175-2.7,17.774s0.9,12.524,2.7,17.774c1.8,5.249,4.35,9.674,7.649,13.274c3.3,3.6,7.35,6.374,12.074,8.324
				c4.726,1.95,9.975,2.925,15.75,2.925c5.774,0,11.024-0.975,15.749-2.925s8.699-4.725,11.999-8.324
				c3.301-3.601,5.851-8.025,7.65-13.274c1.8-5.25,2.699-11.175,2.699-17.774H1045.63z"/>
		</g>
	</g>
	<rect y="225.764" fill="#08DEC8" width="1299.13" height="9"/>
	<rect y="555.698" fill="#08DEC8" width="1299.13" height="9"/>
</g>
</svg>
