<?xml version="1.0" encoding="utf-8"?>
<!-- Generator: Adobe Illustrator 16.0.0, SVG Export Plug-In . SVG Version: 6.00 Build 0)  -->
<!DOCTYPE svg PUBLIC "-//W3C//DTD SVG 1.1//EN" "http://www.w3.org/Graphics/SVG/1.1/DTD/svg11.dtd">
<svg version="1.1" id="Capa_1" xmlns="http://www.w3.org/2000/svg" xmlns:xlink="http://www.w3.org/1999/xlink" x="0px" y="0px"
	 width="92.089px" height="142.845px" viewBox="0 0 92.089 142.845" enable-background="new 0 0 92.089 142.845"
	 xml:space="preserve">
<g>
	<path fill="#8A8A8A" d="M91.76,102.334c-0.652-3.576-3.78-5.663-6.528-7.48c-0.548-0.363-1.071-0.716-1.58-1.068
		c1.281-5.105,1.927-18.317,1.927-23.508c0-20.271-9.712-45.774-26.022-61.388c0,0-8.471-8.954-12.342-8.89
		C42.572,0.077,33.47,7.984,33.47,7.984C16.574,23.5,6.472,49.603,6.472,70.278c0,5.034,0.612,18.084,1.788,23.03
		c-0.479,0.353-1.007,0.703-1.547,1.054c-2.756,1.834-5.884,3.909-6.536,7.522c-1.812,10.014,12.049,35.265,13.624,38.127
		c0.279,0.484,0.843,1.264,1.406,1.342c0.573,0.086,1.061-0.536,1.447-0.942c3.8-3.805,2.825-10.371,8.692-12.2
		c2.702,3.792,6.78,6.78,11.644,8.452c0,0,6.577,3.712,17.428,0.106c5.158-1.694,9.465-4.831,12.23-8.865
		c5.803,1.878,5.126,9.058,8.914,12.841c0.33,0.347,0.489,0.657,0.973,0.657c0.085,0,0.169,0,0.254-0.012
		c0.561-0.089,0.915-0.851,1.253-1.315C79.924,137.513,93.557,112.361,91.76,102.334z M56.84,57.359
		c-2.177,4.002-6.331,6.463-10.874,6.463c-4.324,0-8.258-2.191-10.522-5.871c-1.217-1.959-1.85-4.215-1.85-6.478
		c0-6.835,5.546-12.371,12.372-12.371c6.815,0,12.364,5.536,12.364,12.371C58.33,53.527,57.815,55.565,56.84,57.359z"/>
	<path fill="#FFFFFF" d="M26.969,128.171c2.557,3.667,6.414,6.557,11.014,8.175c0,0,6.222,3.591,16.487,0.104
		c4.878-1.64,8.953-4.673,11.569-8.575c0,0,10.229-11.363,16.084-32.996c1.212-4.939,1.822-17.718,1.822-22.736
		c0-19.606-9.188-44.272-24.616-59.372c0,0-8.013-8.66-11.675-8.598c-4.392,0.073-13.002,7.722-13.002,7.722
		C18.671,26.9,9.114,52.146,9.114,72.142c0,4.868,0.579,17.49,1.691,22.273C16.005,113.116,26.969,128.171,26.969,128.171z
		 M75.632,140.918 M56.761,59.647c-2.061,3.871-5.99,6.25-10.287,6.25c-4.09,0-7.812-2.12-9.954-5.678
		c-1.151-1.894-1.748-4.076-1.748-6.265c0-6.611,5.244-11.964,11.702-11.964c6.446,0,11.695,5.353,11.695,11.964
		C58.169,55.94,57.683,57.912,56.761,59.647z"/>
	<g>
		<path fill="#F5F5F5" d="M24.903,126.629c2.627,3.77,8.326,8.173,13.054,9.834c0,0,3.271,1.706,8.408,1.472l0.954-70.514
			c-0.116,0.004-0.23,0.011-0.35,0.011c-4.201,0-8.026-2.18-10.227-5.834c-1.183-1.948-1.798-4.189-1.798-6.438
			c0-6.794,5.391-12.294,12.024-12.294c0.233,0,0.457,0.021,0.686,0.035l0.528-38.896c-4.512,0.078-13.359,7.935-13.359,7.935
			C18.401,27.361,8.582,53.301,8.582,73.847c0,5.004,1.3,17.965,2.444,22.879C11.026,96.726,12.693,109.335,24.903,126.629z"/>
	</g>
	<path fill="#00D6BD" d="M25.333,128.336c-5.867,1.829-4.893,8.396-8.692,12.2c-0.387,0.406-0.874,1.028-1.447,0.942
		c-0.563-0.078-1.127-0.857-1.406-1.342c-1.575-2.862-15.436-28.113-13.624-38.127c0.652-3.613,3.78-5.688,6.536-7.522
		c0.54-0.351,1.067-0.701,1.547-1.054C8.246,93.434,14.717,118.422,25.333,128.336z"/>
	<path fill="#707070" d="M66.756,127.966c5.867,1.829,4.893,8.396,8.692,12.2c0.387,0.406,0.874,1.028,1.447,0.942
		c0.563-0.078,1.127-0.857,1.406-1.342c1.575-2.862,15.436-28.113,13.624-38.127c-0.652-3.613-3.78-5.688-6.536-7.522
		c-0.54-0.351-1.067-0.701-1.547-1.054C83.843,93.064,77.372,118.052,66.756,127.966z"/>
	<g>
		<path fill="#B0B0B0" d="M62.6,118.561c-4.836-0.369-17.148-1.266-33.938-0.25"/>
		<path fill="#B0B0B0" d="M26.475,115.999c0,0,20.52-1.194,38.812,0.062"/>
	</g>
	<path fill="#FFB347" d="M68.239,140.742l-2.379-11.548c-22.107,3.484-40.032-0.146-40.032-0.146l-2.335,11.848
		c0,0-0.571,1.735,1.429,1.925h41.624C66.546,142.82,68.682,143.228,68.239,140.742z"/>
</g>
</svg>
