<?xml version="1.0" encoding="utf-8"?>
<!-- Generator: Adobe Illustrator 16.0.0, SVG Export Plug-In . SVG Version: 6.00 Build 0)  -->
<!DOCTYPE svg PUBLIC "-//W3C//DTD SVG 1.1//EN" "http://www.w3.org/Graphics/SVG/1.1/DTD/svg11.dtd">
<svg version="1.1" id="Capa_1" xmlns="http://www.w3.org/2000/svg" xmlns:xlink="http://www.w3.org/1999/xlink" x="0px" y="0px"
	 width="161.861px" height="77.658px" viewBox="0 0 161.861 77.658" enable-background="new 0 0 161.861 77.658"
	 xml:space="preserve">
<g>
	<g>
		<circle fill="#FFFFFF" cx="13.589" cy="43.11" r="13.588"/>
		<circle fill="#E6E6E6" cx="45.749" cy="8.909" r="8.22"/>
		<circle fill="#E6E6E6" cx="21.024" cy="19.038" r="19.039"/>
		<circle fill="#E6E6E6" cx="39.301" cy="45.149" r="28.69"/>
		<circle fill="#FFFFFF" cx="40.837" cy="42.492" r="28.689"/>
		<circle fill="#E6E6E6" cx="57.279" cy="40.831" r="19.749"/>
		<circle fill="#FFFFFF" cx="60.503" cy="40.057" r="19.749"/>
	</g>
	<g>
		<g>
			<circle fill="#FFFFFF" cx="136.486" cy="32.173" r="10.022"/>
			<circle fill="#E6E6E6" cx="137.55" cy="66.778" r="6.062"/>
			<circle fill="#FFFFFF" cx="12.148" cy="66.778" r="6.062"/>
			<circle fill="#DCDCDC" cx="147.819" cy="49.489" r="14.042"/>
			<circle fill="#E6E6E6" cx="145.161" cy="48.604" r="14.042"/>
			<circle fill="#FFFFFF" cx="122.599" cy="46.706" r="21.158"/>
			<path fill="#FFFFFF" d="M112.394,72.743c-8.016-0.673-13.967-7.717-13.293-15.734c0.672-8.014,7.717-13.965,15.732-13.292
				c8.016,0.675,13.969,7.718,13.293,15.732C127.453,67.468,120.408,73.419,112.394,72.743z"/>
		</g>
		<circle fill="#FFFFFF" cx="67.863" cy="53.589" r="24.068"/>
		<circle fill="#E6E6E6" cx="116.857" cy="42.491" r="15.418"/>
		<path fill="#FFFFFF" d="M129.031,40.831c0,8.514-6.902,15.416-15.416,15.416c-8.518,0-15.418-6.902-15.418-15.416
			c0-8.516,6.9-15.418,15.418-15.418C122.128,25.413,129.031,32.315,129.031,40.831z"/>
	</g>
</g>
</svg>
