<?xml version="1.0" encoding="utf-8"?>
<!-- Generator: Adobe Illustrator 16.0.0, SVG Export Plug-In . SVG Version: 6.00 Build 0)  -->
<!DOCTYPE svg PUBLIC "-//W3C//DTD SVG 1.1//EN" "http://www.w3.org/Graphics/SVG/1.1/DTD/svg11.dtd">
<svg version="1.1" id="Capa_1" xmlns="http://www.w3.org/2000/svg" xmlns:xlink="http://www.w3.org/1999/xlink" x="0px" y="0px"
	 width="26.118px" height="48.731px" viewBox="0 0 26.118 48.731" enable-background="new 0 0 26.118 48.731" xml:space="preserve">
<g>
	<path fill="#FFFFFF" d="M25.118,0H1C0.447,0,0,0.447,0,1v46.731c0,0.553,0.447,1,1,1h24.118c0.553,0,1-0.447,1-1V1
		C26.118,0.447,25.671,0,25.118,0z M2,8.027h22.118v29.657H2V8.027z M24.118,2v4.027H2V2H24.118z M2,46.731v-7.047h22.118v7.047H2z"
		/>
	<path fill="#FFFFFF" d="M10.043,5.014h6.031c0.553,0,1-0.447,1-1s-0.447-1-1-1h-6.031c-0.553,0-1,0.447-1,1
		S9.49,5.014,10.043,5.014z"/>
	<path fill="#FFFFFF" d="M13.059,40.7c-1.383,0-2.508,1.125-2.508,2.508s1.125,2.508,2.508,2.508s2.508-1.125,2.508-2.508
		S14.441,40.7,13.059,40.7z M13.059,43.716c-0.28,0-0.508-0.228-0.508-0.508s0.228-0.508,0.508-0.508s0.508,0.228,0.508,0.508
		S13.339,43.716,13.059,43.716z"/>
</g>
</svg>
