<?xml version="1.0" encoding="utf-8"?>
<!-- Generator: Adobe Illustrator 16.0.0, SVG Export Plug-In . SVG Version: 6.00 Build 0)  -->
<!DOCTYPE svg PUBLIC "-//W3C//DTD SVG 1.1//EN" "http://www.w3.org/Graphics/SVG/1.1/DTD/svg11.dtd">
<svg version="1.1" id="Capa_1" xmlns="http://www.w3.org/2000/svg" xmlns:xlink="http://www.w3.org/1999/xlink" x="0px" y="0px"
	 width="60.169px" height="45.426px" viewBox="0 0 60.169 45.426" enable-background="new 0 0 60.169 45.426" xml:space="preserve">
<path fill="#FFFFFF" d="M58.259,0H1.91C0.856,0,0,0.856,0,1.91v35.242c0,1.054,0.856,1.91,1.91,1.91h21.144
	c-0.024,1.704-0.649,2.308-0.654,2.313c-0.029,0.022-0.058,0.047-0.085,0.073c-0.195,0.189-1.191,1.155-1.533,1.581
	c-0.143,0.178-0.221,0.399-0.221,0.627v0.468c0,0.479,0.34,0.891,0.81,0.981c0.067,0.014,1.679,0.319,4.597,0.319
	c0.001,0,0.001,0,0.002,0l8.401-0.015c0.305,0,3.013-0.01,4.248-0.348c0.435-0.119,0.736-0.515,0.736-0.965v-0.467
	c0-0.315-0.149-0.612-0.402-0.802c-0.009-0.006-0.885-0.664-1.578-1.519c-0.02-0.024-0.04-0.048-0.062-0.07
	c-0.062-0.114-0.292-0.646-0.392-2.179h21.339c1.054,0,1.91-0.856,1.91-1.91V1.91C60.169,0.856,59.312,0,58.259,0z M34.368,43.411
	l-8.403,0.015c-1.111,0-2.02-0.048-2.704-0.104c0.152-0.15,0.299-0.295,0.421-0.413c0.281-0.245,1.244-1.24,1.366-3.467l9.895,0.016
	c0.129,1.626,0.44,2.689,0.928,3.173c0.21,0.255,0.431,0.493,0.645,0.708C35.683,43.395,34.8,43.411,34.368,43.411z M58.169,2
	v26.621H2V2H58.169z M2,37.062v-6.441h56.169v6.441H2z"/>
</svg>
