<?xml version="1.0" encoding="utf-8"?>
<!-- Generator: Adobe Illustrator 16.0.0, SVG Export Plug-In . SVG Version: 6.00 Build 0)  -->
<!DOCTYPE svg PUBLIC "-//W3C//DTD SVG 1.1//EN" "http://www.w3.org/Graphics/SVG/1.1/DTD/svg11.dtd">
<svg version="1.1" id="Capa_1" xmlns="http://www.w3.org/2000/svg" xmlns:xlink="http://www.w3.org/1999/xlink" x="0px" y="0px"
	 width="150px" height="19.889px" viewBox="0 0 150 19.889" enable-background="new 0 0 150 19.889" xml:space="preserve">
<path fill="#F3B32F" d="M150.001,9.102l-0.545,0.337c-14.2,9.202-35.507,0.018-35.712-0.072c-0.703-0.317-17.448-7.665-38.419-0.028
	C55.764,16.457,35.037,9.406,34.818,9.33C34.07,9.079,16.418,3.288,0,9.213l-0.001,2.183c0.18-0.089,0.322-0.16,0.401-0.199
	c15.827-5.854,33.604-0.03,33.771,0.025c0.873,0.306,21.593,7.366,41.838-0.004c20.18-7.345,36.749-0.103,36.921-0.024
	c0.601,0.264,10.159,4.39,20.929,4.39c5.401,0,11.109-1.038,16.142-4.123L150.001,9.102z"/>
</svg>
