<?xml version="1.0" encoding="utf-8"?>
<!-- Generator: Adobe Illustrator 16.0.0, SVG Export Plug-In . SVG Version: 6.00 Build 0)  -->
<!DOCTYPE svg PUBLIC "-//W3C//DTD SVG 1.1//EN" "http://www.w3.org/Graphics/SVG/1.1/DTD/svg11.dtd">
<svg version="1.1" id="Capa_1" xmlns="http://www.w3.org/2000/svg" xmlns:xlink="http://www.w3.org/1999/xlink" x="0px" y="0px"
	 width="150px" height="19.889px" viewBox="0 0 218.026 19.889" enable-background="new 0 0 218.026 19.889"
	 xml:space="preserve">
<path fill="#F3B32F" d="M188.197,19.828c-8.729,0-18.745-2.154-29.164-8.608c-25.617-18.247-53.775-0.206-54.056-0.021
	c-0.342,0.198-26.786,14.951-54.856,0.07C36.222,3.901,23.757,4.29,15.746,5.915C7.089,7.67,1.7,11.163,1.646,11.198L0,8.69
	C0.229,8.539,23.402-6.29,51.525,8.619c26.63,14.115,51.636,0.165,51.886,0.022c0.221-0.146,30.095-19.29,57.282,0.081
	c29.341,18.176,55.334,0.183,55.594-0.001l1.739,2.444C217.844,11.296,205.571,19.828,188.197,19.828z"/>
</svg>
