<?xml version="1.0" encoding="utf-8"?>
<!-- Generator: Adobe Illustrator 16.0.0, SVG Export Plug-In . SVG Version: 6.00 Build 0)  -->
<!DOCTYPE svg PUBLIC "-//W3C//DTD SVG 1.1//EN" "http://www.w3.org/Graphics/SVG/1.1/DTD/svg11.dtd">
<svg version="1.1" id="Capa_1" xmlns="http://www.w3.org/2000/svg" xmlns:xlink="http://www.w3.org/1999/xlink" x="0px" y="0px"
	 width="68.144px" height="80.028px" viewBox="0 0 68.144 80.028" enable-background="new 0 0 68.144 80.028" xml:space="preserve">
<g>
	<g>
		<g>
			
				<path fill="none" stroke="#00D6BD" stroke-width="2.2677" stroke-linecap="round" stroke-linejoin="round" stroke-miterlimit="10" d="
				M30.419,18.173c-2.264,7.624-7.661,18.249-20.491,27.405"/>
			
				<path fill="none" stroke="#00D6BD" stroke-width="2.2677" stroke-linecap="round" stroke-linejoin="round" stroke-miterlimit="10" d="
				M37.894,19.164c-2.2,9-9.644,26.712-34.724,38.689"/>
			
				<path fill="none" stroke="#00D6BD" stroke-width="2.2677" stroke-linecap="round" stroke-linejoin="round" stroke-miterlimit="10" d="
				M47.066,22.18c-1.678,8.559-8.972,32.414-39.25,45.645"/>
			
				<path fill="none" stroke="#00D6BD" stroke-width="2.2677" stroke-linecap="round" stroke-linejoin="round" stroke-miterlimit="10" d="
				M52.477,39.007c-0.95,2.237-2.133,4.665-3.596,7.193c-5.484,9.471-14.938,20.364-31.134,28.081"/>
			
				<path fill="none" stroke="#00D6BD" stroke-width="2.2677" stroke-linecap="round" stroke-linejoin="round" stroke-miterlimit="10" d="
				M60.271,38.031c-3.746,10.47-13.181,28.021-36.08,39.187"/>
			
				<path fill="none" stroke="#00D6BD" stroke-width="2.2677" stroke-linecap="round" stroke-linejoin="round" stroke-miterlimit="10" d="
				M62.464,47.859c-4.143,9.522-12.417,21.824-28.851,30.891"/>
		</g>
	</g>
	<g>
		<g>
			<path fill="#00D6BD" d="M31.695,18.907c16.226,0,29.427,13.201,29.427,29.428c0,16.226-13.201,29.426-29.427,29.426
				c-16.227,0-29.428-13.2-29.428-29.426C2.268,32.108,15.469,18.907,31.695,18.907 M31.695,16.64C14.19,16.64,0,30.83,0,48.335
				s14.19,31.693,31.695,31.693c17.504,0,31.694-14.188,31.694-31.693S49.199,16.64,31.695,16.64L31.695,16.64z"/>
		</g>
	</g>
	<g>
		<path fill="#00D6BD" d="M61.013,2.268c2.682,0,4.863,2.182,4.863,4.864c0,2.682-2.182,4.863-4.863,4.863s-4.863-2.182-4.863-4.863
			C56.149,4.45,58.331,2.268,61.013,2.268 M61.013,0c-3.939,0-7.131,3.192-7.131,7.132c0,3.938,3.191,7.131,7.131,7.131
			s7.131-3.193,7.131-7.131C68.144,3.192,64.952,0,61.013,0L61.013,0z"/>
	</g>
</g>
</svg>
