<?xml version="1.0" encoding="utf-8"?>
<!-- Generator: Adobe Illustrator 16.0.0, SVG Export Plug-In . SVG Version: 6.00 Build 0)  -->
<!DOCTYPE svg PUBLIC "-//W3C//DTD SVG 1.1//EN" "http://www.w3.org/Graphics/SVG/1.1/DTD/svg11.dtd">
<svg version="1.1" id="Capa_1" xmlns="http://www.w3.org/2000/svg" xmlns:xlink="http://www.w3.org/1999/xlink" x="0px" y="0px"
	 width="72.282px" height="72.112px" viewBox="0 0 72.282 72.112" enable-background="new 0 0 72.282 72.112" xml:space="preserve">
<g>
	<g>
		
			<path fill="none" stroke="#00D6BD" stroke-width="2.2677" stroke-linecap="round" stroke-linejoin="round" stroke-miterlimit="10" d="
			M32.438,7.853c0.627-3.132,4.291-4.019,8.201-3.32c5.303,0.946,7.429,6.374,3.305,7.257"/>
		
			<path fill="none" stroke="#00D6BD" stroke-width="2.2677" stroke-linecap="round" stroke-linejoin="round" stroke-miterlimit="10" d="
			M38.262,12.877c0,0,10.37,1.421,12.784-2.84c2.416-4.262-3.977-7.341-3.977-7.341"/>
		
			<path fill="none" stroke="#00D6BD" stroke-width="2.2677" stroke-linecap="round" stroke-linejoin="round" stroke-miterlimit="10" d="
			M43.944,18.079c0,0,15.057-0.21,15.482-8.306"/>
		
			<path fill="none" stroke="#00D6BD" stroke-width="2.2677" stroke-linecap="round" stroke-linejoin="round" stroke-miterlimit="10" d="
			M66.245,26.744c0,0-6.961,0.568-11.079,8.949"/>
		
			<path fill="none" stroke="#00D6BD" stroke-width="2.2677" stroke-linecap="round" stroke-linejoin="round" stroke-miterlimit="10" d="
			M71.148,36.404c0,0-0.669-2.559-5.215-1.848c-4.545,0.71-7.812,6.393-9.232,11.648"/>
		
			<line fill="none" stroke="#00D6BD" stroke-width="2.2677" stroke-linecap="round" stroke-linejoin="round" stroke-miterlimit="10" x1="55.849" y1="50.467" x2="55.422" y2="52.313"/>
		
			<path fill="none" stroke="#00D6BD" stroke-width="2.2677" stroke-linecap="round" stroke-linejoin="round" stroke-miterlimit="10" d="
			M55.139,55.721c0,0-0.427,4.832,1.562,8.24"/>
		
			<path fill="none" stroke="#00D6BD" stroke-width="2.2677" stroke-linecap="round" stroke-linejoin="round" stroke-miterlimit="10" d="
			M61.558,46.49c0,0-1.542,7.254,2.272,7.527c3.978,0.285,5.129-4.963,5.256-6.533c0.382-4.709-0.954-8.496-4.261-6.678"/>
		
			<path fill="none" stroke="#00D6BD" stroke-width="2.2677" stroke-linecap="round" stroke-linejoin="round" stroke-miterlimit="10" d="
			M28.177,63.251c0,0,6.108-3.552,6.393-12.075c0.283-8.521-13.211-17.756-13.211-17.756"/>
		
			<path fill="none" stroke="#00D6BD" stroke-width="2.2677" stroke-linecap="round" stroke-linejoin="round" stroke-miterlimit="10" d="
			M36.273,36.404c0,0,9.093,9.943,3.836,22.443"/>
		
			<path fill="none" stroke="#00D6BD" stroke-width="2.2677" stroke-linecap="round" stroke-linejoin="round" stroke-miterlimit="10" d="
			M44.37,61.18c0,0,0.143,7.527-4.688,9.799"/>
		
			<path fill="none" stroke="#00D6BD" stroke-width="2.2677" stroke-linecap="round" stroke-linejoin="round" stroke-miterlimit="10" d="
			M50.905,45.211c0,0-1.137,8.523,0.426,17.898"/>
		
			<path fill="none" stroke="#00D6BD" stroke-width="2.2677" stroke-linecap="round" stroke-linejoin="round" stroke-miterlimit="10" d="
			M21.074,50.609c0,0,1.128-4.288-4.829-5.257c-6.108-0.993-8.943,7.8-0.568,12.073c4.191,2.139,7.688,0.938,9.375-0.566
			c1.115-0.996,1.137-2.273,1.137-2.273"/>
		
			<path fill="none" stroke="#00D6BD" stroke-width="2.2677" stroke-linecap="round" stroke-linejoin="round" stroke-miterlimit="10" d="
			M18.219,52.576c-3.126,1.562-8.792-2.109-5.24-6.654"/>
		
			<path fill="none" stroke="#00D6BD" stroke-width="2.2677" stroke-linecap="round" stroke-linejoin="round" stroke-miterlimit="10" d="
			M26.188,49.898c0,0-0.426-8.666-12.5-12.5"/>
		
			<path fill="none" stroke="#00D6BD" stroke-width="2.2677" stroke-linecap="round" stroke-linejoin="round" stroke-miterlimit="10" d="
			M9,36.119c0,0-2.13,0.141-3.267,0.283"/>
		
			<path fill="none" stroke="#00D6BD" stroke-width="2.2677" stroke-linecap="round" stroke-linejoin="round" stroke-miterlimit="10" d="
			M16.103,30.438c0,0-5.54-3.41-13.21-3.268"/>
		
			<path fill="none" stroke="#00D6BD" stroke-width="2.2677" stroke-linecap="round" stroke-linejoin="round" stroke-miterlimit="10" d="
			M15.676,15.238c0,0,1.562,2.557,2.699,2.982"/>
		
			<path fill="none" stroke="#00D6BD" stroke-width="2.2677" stroke-linecap="round" stroke-linejoin="round" stroke-miterlimit="10" d="
			M21.358,20.635c0,0,12.643,10.086,32.672,2.273"/>
		
			<path fill="none" stroke="#00D6BD" stroke-width="2.2677" stroke-linecap="round" stroke-linejoin="round" stroke-miterlimit="10" d="
			M27.467,17.281c0,0-4.898-3.203-5.683-6.535c-1.027-4.361,1.562-8.477,11.222-9.612"/>
	</g>
	<g>
		<path fill="#00D6BD" d="M35.981,2.35c18.59,0,33.714,15.124,33.714,33.714c0,18.591-15.124,33.716-33.714,33.716
			S2.268,54.654,2.268,36.063C2.268,17.474,17.392,2.35,35.981,2.35 M35.981,0.082C16.108,0.082,0,16.188,0,36.063
			c0,19.874,16.109,35.983,35.981,35.983c19.873,0,35.981-16.109,35.981-35.983C71.963,16.191,55.854,0.082,35.981,0.082
			L35.981,0.082z"/>
	</g>
</g>
</svg>
