<?xml version="1.0" encoding="utf-8"?>
<!-- Generator: Adobe Illustrator 16.0.0, SVG Export Plug-In . SVG Version: 6.00 Build 0)  -->
<!DOCTYPE svg PUBLIC "-//W3C//DTD SVG 1.1//EN" "http://www.w3.org/Graphics/SVG/1.1/DTD/svg11.dtd">
<svg version="1.1" id="Capa_1" xmlns="http://www.w3.org/2000/svg" xmlns:xlink="http://www.w3.org/1999/xlink" x="0px" y="0px"
	 width="93.941px" height="71.965px" viewBox="0 0 93.941 71.965" enable-background="new 0 0 93.941 71.965" xml:space="preserve">
<g>
	
		<path fill="none" stroke="#00D6BD" stroke-width="2.2677" stroke-linecap="round" stroke-linejoin="round" stroke-miterlimit="10" d="
		M59.928,1.199c0,0-3.043,9.939-16.434,21.098"/>
	
		<path fill="none" stroke="#00D6BD" stroke-width="2.2677" stroke-linecap="round" stroke-linejoin="round" stroke-miterlimit="10" d="
		M24.124,43.803c0,0,31.042-17.041,41.997-41.793"/>
	
		<path fill="none" stroke="#00D6BD" stroke-width="2.2677" stroke-linecap="round" stroke-linejoin="round" stroke-miterlimit="10" d="
		M26.682,51.177c0,0,35.399-19.159,47.148-45.704"/>
	
		<path fill="none" stroke="#00D6BD" stroke-width="2.2677" stroke-linecap="round" stroke-linejoin="round" stroke-miterlimit="10" d="
		M77.33,48.141c5.996-6.25,11.363-12.308,14.927-20.357"/>
	
		<path fill="none" stroke="#00D6BD" stroke-width="2.2677" stroke-linecap="round" stroke-linejoin="round" stroke-miterlimit="10" d="
		M48.984,70.221c0,0,4.891-2.685,11.582-7.489"/>
	
		<path fill="none" stroke="#00D6BD" stroke-width="2.2677" stroke-linecap="round" stroke-linejoin="round" stroke-miterlimit="10" d="
		M64.131,41.283c7.411-7.099,16.375-18.094,20.695-27.855"/>
	
		<path fill="none" stroke="#00D6BD" stroke-width="2.2677" stroke-linecap="round" stroke-linejoin="round" stroke-miterlimit="10" d="
		M34.334,62.498c7.434-3.451,10.354-5.045,15.889-9.789"/>
	
		<path fill="none" stroke="#00D6BD" stroke-width="2.2677" stroke-linecap="round" stroke-linejoin="round" stroke-miterlimit="10" d="
		M42.018,67.434c0,0,30.282-14.492,47.637-46.539"/>
	<g>
		<path fill="#00D6BD" d="M57.96,2.268c18.59,0,33.714,15.125,33.714,33.715S76.55,69.697,57.96,69.697S24.246,54.573,24.246,35.982
			S39.37,2.268,57.96,2.268 M57.96,0C38.088,0,21.979,16.109,21.979,35.982S38.088,71.965,57.96,71.965s35.981-16.109,35.981-35.982
			S77.832,0,57.96,0L57.96,0z"/>
	</g>
	<g>
		<path fill="#00D6BD" d="M61.273,43.047L61.273,43.047c0.118,0,0.208,0.008,0.275,0.018c-0.053,0.734-1.013,2.792-3.575,4.821
			c-2.224,1.76-4.216,2.384-5.246,2.384c-0.118,0-0.208-0.008-0.275-0.018c0.052-0.733,1.011-2.792,3.575-4.822
			C58.25,43.672,60.242,43.048,61.273,43.047 M61.273,40.78c-1.811,0-4.319,1.026-6.653,2.873c-3.523,2.789-5.316,6.396-4.001,8.059
			c0.444,0.561,1.186,0.828,2.108,0.828c1.81,0,4.318-1.026,6.653-2.875c3.523-2.789,5.316-6.396,4.001-8.057
			C62.938,41.046,62.197,40.78,61.273,40.78L61.273,40.78z"/>
	</g>
	<g>
		<path fill="#00D6BD" d="M4.188,40.791c1.059,0,1.92,0.861,1.92,1.92s-0.861,1.92-1.92,1.92s-1.92-0.861-1.92-1.92
			S3.129,40.791,4.188,40.791 M4.188,38.523C1.875,38.523,0,40.398,0,42.711s1.875,4.188,4.188,4.188s4.188-1.875,4.188-4.188
			S6.5,38.523,4.188,38.523L4.188,38.523z"/>
	</g>
</g>
</svg>
