<?xml version="1.0" encoding="utf-8"?>
<!-- Generator: Adobe Illustrator 16.0.0, SVG Export Plug-In . SVG Version: 6.00 Build 0)  -->
<!DOCTYPE svg PUBLIC "-//W3C//DTD SVG 1.1//EN" "http://www.w3.org/Graphics/SVG/1.1/DTD/svg11.dtd">
<svg version="1.1" id="Capa_1" xmlns="http://www.w3.org/2000/svg" xmlns:xlink="http://www.w3.org/1999/xlink" x="0px" y="0px"
	 width="95.584px" height="71.965px" viewBox="0 0 95.584 71.965" enable-background="new 0 0 95.584 71.965" xml:space="preserve">
<g>
	<g>
		<g>
			<path fill="#00D6BD" d="M35.982,2.268c18.59,0,33.715,15.124,33.715,33.714c0,18.591-15.125,33.716-33.715,33.716
				S2.268,54.572,2.268,35.981C2.268,17.392,17.393,2.268,35.982,2.268 M35.982,0C16.109,0,0,16.109,0,35.981
				c0,19.874,16.109,35.983,35.982,35.983s35.982-16.109,35.982-35.983C71.965,16.109,55.855,0,35.982,0L35.982,0z"/>
		</g>
		<g>
			
				<path fill="none" stroke="#00D6BD" stroke-width="2.2677" stroke-linecap="round" stroke-linejoin="round" stroke-miterlimit="10" d="
				M28.771,70.17c0,0,5.478-9.33,16.23-13.592c10.754-4.261,20.896-2.434,20.896-2.434"/>
			
				<path fill="none" stroke="#00D6BD" stroke-width="2.2677" stroke-linecap="round" stroke-linejoin="round" stroke-miterlimit="10" d="
				M67.116,20.668c0,0-11.563-2.436-20.086,0.607C38.51,24.318,23.699,35.072,4.02,21.885"/>
			
				<path fill="none" stroke="#00D6BD" stroke-width="2.2677" stroke-linecap="round" stroke-linejoin="round" stroke-miterlimit="10" d="
				M3.004,47.855c0,0,17.043-0.609,16.84-5.682s-4.26-8.318-17.447-9.536"/>
			
				<path fill="none" stroke="#00D6BD" stroke-width="2.2677" stroke-linecap="round" stroke-linejoin="round" stroke-miterlimit="10" d="
				M9.295,13.364c0,0,15.621,9.333,20.49,5.68c4.87-3.651-1.825-9.94-15.418-10.55"/>
			
				<path fill="none" stroke="#00D6BD" stroke-width="2.2677" stroke-linecap="round" stroke-linejoin="round" stroke-miterlimit="10" d="
				M20.656,4.031c0,0,9.764,0.014,17.65,4.869c7.912,4.87,13.391,7.508,26.172,5.479"/>
			
				<path fill="none" stroke="#00D6BD" stroke-width="2.2677" stroke-linecap="round" stroke-linejoin="round" stroke-miterlimit="10" d="
				M5.643,54.549c0,0,9.337-0.544,15.217-4.463c7.304-4.869,16.433-13.797,20.896-15.824c4.463-2.03,8.756-1.734,18.462,1.824
				c6.087,2.232,10.55,2.639,11.36,1.016"/>
			
				<path fill="none" stroke="#00D6BD" stroke-width="2.2677" stroke-linecap="round" stroke-linejoin="round" stroke-miterlimit="10" d="
				M69.754,46.84c0,0-14.404-2.842-24.752-1.421C34.655,46.84,24.916,63.273,23.09,66.926"/>
		</g>
	</g>
	<g>
		<path fill="#00D6BD" d="M87.209,15.363c3.367,0,6.107,2.74,6.107,6.107s-2.74,6.107-6.107,6.107s-6.107-2.74-6.107-6.107
			S83.842,15.363,87.209,15.363 M87.209,13.096c-4.625,0-8.375,3.75-8.375,8.375s3.75,8.375,8.375,8.375s8.375-3.75,8.375-8.375
			S91.834,13.096,87.209,13.096L87.209,13.096z"/>
	</g>
</g>
</svg>
