<?xml version="1.0" encoding="utf-8"?>
<!-- Generator: Adobe Illustrator 16.0.0, SVG Export Plug-In . SVG Version: 6.00 Build 0)  -->
<!DOCTYPE svg PUBLIC "-//W3C//DTD SVG 1.1//EN" "http://www.w3.org/Graphics/SVG/1.1/DTD/svg11.dtd">
<svg version="1.1" id="Capa_1" xmlns="http://www.w3.org/2000/svg" xmlns:xlink="http://www.w3.org/1999/xlink" x="0px" y="0px"
	 width="115.514px" height="68.029px" viewBox="0 0 115.514 68.029" enable-background="new 0 0 115.514 68.029"
	 xml:space="preserve">
<g>
	
		<path fill="none" stroke="#00D6BD" stroke-width="2.2677" stroke-linecap="round" stroke-linejoin="round" stroke-miterlimit="10" d="
		M91.669,31.731c-0.384-5.582-2.157-10.777-4.98-15.248c-0.121-0.001-0.241-0.004-0.362-0.006l-0.285-0.987
		C80.121,6.825,70.164,1.134,58.877,1.134c-18.16,0-32.881,14.723-32.881,32.881c0,6.101,1.668,11.809,4.562,16.703 M34.621,56.21
		c6.012,6.566,14.652,10.686,24.256,10.686c16.537,0,30.217-12.21,32.53-28.105c-8.22,3.971-18.163,7.818-29.069,11.083
		C52.485,52.823,43.028,54.943,34.621,56.21z"/>
	<g>
		<path fill="#00D6BD" d="M98.66,15.914c9.895,0.176,14.104,2.157,14.509,3.508c0.604,2.016-2.296,6.549-12.454,12.692
			c-9.685,5.857-23.23,11.541-38.143,16.005c-16.227,4.858-32.129,7.644-43.63,7.644c-9.792,0-13.882-2.058-14.409-3.819
			c-0.325-1.086,0.802-3.446,4.939-6.813c1.244-1.013,2.702-2.07,4.352-3.159c-1.627,2.069-2.112,3.934-1.576,5.729
			c1.161,3.875,6.227,5.84,15.057,5.84c9.312,0,22.092-2.227,35.062-6.11c11.904-3.563,22.762-8.127,30.57-12.85
			c8.868-5.363,12.722-10.231,11.453-14.467C103.826,18.233,101.908,16.831,98.66,15.914 M97.219,13.633
			c-3.376,0-7.027,0.194-10.785,0.568l0.777,2.695c6.855,0.086,14.185,1.125,15.006,3.868c1.878,6.27-16.254,17.236-40.501,24.494
			c-13.28,3.976-25.641,6.015-34.411,6.015c-7.24,0-12.034-1.389-12.884-4.224c-0.949-3.174,4.636-7.547,12.13-12.036l-0.576-2.448
			C11.18,39.829,0.818,47.443,2.36,52.595c1.093,3.648,7.265,5.437,16.582,5.437c11.287,0,27.19-2.623,44.28-7.739
			c31.202-9.341,54.534-23.452,52.119-31.521C114.281,15.229,106.887,13.633,97.219,13.633L97.219,13.633z"/>
	</g>
	<g>
		<path fill="#00D6BD" d="M5.582,2.853c1.828,0,3.316,1.488,3.316,3.316c0,1.828-1.488,3.314-3.316,3.314
			c-1.827,0-3.314-1.487-3.314-3.314C2.268,4.34,3.755,2.853,5.582,2.853 M5.582,0.585C2.499,0.585,0,3.085,0,6.169
			s2.499,5.582,5.582,5.582c3.084,0,5.584-2.498,5.584-5.582S8.666,0.585,5.582,0.585L5.582,0.585z"/>
	</g>
</g>
</svg>
